# xmcd
#
# Track frame offsets:
#	183
#	11745
#	20670
#	33258
#	43658
#	54570
#	66183
#	76383
#	87995
#	99283
#	113670
#	124833
#	135945
#	147783
#	156520
#
# Disc length: 2255 seconds
# Revision: 0
# Processed by: cddbd v1.5.2PL0 Copyright (c) Steve Scherf et al.
# Submitted via: dBpowerAMP V12.0
#
DISCID=c108cd0f
DTITLE=Patsy Cline - Walking Dream
DYEAR=2002
DGENRE=Country
TTITLE0=Walkin' After Midnight
TTITLE1=Try Again
TTITLE2=Fingerprints
TTITLE3=Walking Dreams
TTITLE4=I Cried All the Way to the Altar
TTITLE5=In Care of the Blues
TTITLE6=Three Cigarettes in the Ashtray
TTITLE7=I've Loved and Lost Again
TTITLE8=Just Out of Reach
TTITLE9=Then You'll Know
TTITLE10=Don't Ever Leave Me Again
TTITLE11=Stop the World
TTITLE12=Today, Tomorrow and Forever
TTITLE13=Ain't No Wheels on This Ship
TTITLE14=Just a Closer Walk With Thee
EXTD=
EXTT0=
EXTT1=
EXTT2=
EXTT3=
EXTT4=
EXTT5=
EXTT6=
EXTT7=
EXTT8=
EXTT9=
EXTT10=
EXTT11=
EXTT12=
EXTT13=
EXTT14=
PLAYORDER=
